<svg width="16" height="16" viewBox="0 0 16 16" fill="none" xmlns="http://www.w3.org/2000/svg">
<g clip-path="url(#clip0_122_6)">
<circle cx="8" cy="8" r="8" fill="white"/>
<path d="M15.3747 5.45959C15.4791 5.42362 15.5932 5.47906 15.6266 5.58436C16.1642 7.28154 16.1208 9.11176 15.4998 10.7843C14.8557 12.5194 13.6298 13.9775 12.0311 14.9101C10.4324 15.8428 8.5598 16.1922 6.73234 15.8989C4.90488 15.6056 3.23565 14.6878 2.00906 13.3018C0.78247 11.9157 0.074416 10.1473 0.00554108 8.2977C-0.0633338 6.44814 0.511232 4.63192 1.63134 3.1585C2.75145 1.68507 4.34779 0.645615 6.14837 0.217232C7.88402 -0.195703 9.70593 -0.0162135 11.3251 0.723774C11.4256 0.769686 11.4668 0.889665 11.4184 0.98895L10.9829 1.88217C10.9344 1.98145 10.8148 2.02239 10.7141 1.97701C9.38495 1.37803 7.8929 1.23482 6.47096 1.57312C4.98407 1.92687 3.66583 2.78524 2.74086 4.00197C1.8159 5.21869 1.34143 6.7185 1.39831 8.24584C1.45518 9.77317 2.03988 11.2335 3.05278 12.3781C4.06568 13.5227 5.4441 14.2806 6.95319 14.5228C8.46227 14.765 10.0086 14.4764 11.3288 13.7063C12.649 12.9361 13.6613 11.7321 14.1932 10.2992C14.7019 8.92899 14.7412 7.4306 14.3083 6.03847C14.2755 5.93299 14.3307 5.81922 14.4352 5.78324L15.3747 5.45959Z" fill="black"/>
<path d="M2.99 5.67204L3.32748 5.04905C3.39006 4.93353 3.54514 4.9087 3.64066 4.99891L6.92193 8.09789C6.99781 8.16955 7.11604 8.17082 7.19344 8.10079L15.1336 0.916858C15.2622 0.800519 15.4678 0.891762 15.4678 1.06516V1.3436C15.4678 1.39012 15.4515 1.43518 15.4219 1.47104L7.22251 11.3884C7.13869 11.4898 6.9815 11.484 6.90532 11.3768L3.00281 5.88313C2.95864 5.82096 2.95368 5.73909 2.99 5.67204Z" fill="#FF0000" stroke="#FF0000"/>
</g>
<defs>
<clipPath id="clip0_122_6">
<rect width="16" height="16" fill="white"/>
</clipPath>
</defs>
</svg>
